<svg width="1520" height="571" viewBox="0 0 1920 900" fill="none" xmlns="http://www.w3.org/2000/svg">
<path fill-rule="evenodd" clip-rule="evenodd" d="M0 469.446L35.2 424.737C70.4 380.028 142.4 290.61 212.8 245.9C284.8 201.191 355.2 201.191 427.2 245.9C497.6 290.61 569.6 380.028 640 357.673C710.4 335.319 782.4 201.191 852.8 190.014C924.8 178.837 995.2 290.61 1067.2 335.319C1137.6 380.028 1209.6 357.673 1280 402.383C1350.4 447.092 1422.4 558.865 1492.8 570.042C1564.8 581.219 1635.2 491.801 1707.2 447.092C1777.6 402.383 1849.6 402.383 1884.8 402.383H1920V0H1884.8C1849.6 0 1777.6 0 1707.2 0C1635.2 0 1564.8 0 1492.8 0C1422.4 0 1350.4 0 1280 0C1209.6 0 1137.6 0 1067.2 0C995.2 0 924.8 0 852.8 0C782.4 0 710.4 0 640 0C569.6 0 497.6 0 427.2 0C355.2 0 284.8 0 212.8 0C142.4 0 70.4 0 35.2 0H0V469.446Z" fill="#D61D5F"/>
</svg>
